<svg xmlns="http://www.w3.org/2000/svg" viewBox="0 0 201.69 184.94"><g id="图层_2" data-name="图层 2"><g id="logo-pasteOn"><path d="M201.69,105.14c-1.06,4-2,8.06-3.2,12-10.91,36.12-34.73,59.15-71.74,66-36.35,6.72-66.53-5.83-89.6-34.91-2.46-3.1-4.87-6.24-3-10.67,3-6.88,10.34-7.25,15.56-.32,10.82,14.36,24.73,24,42.12,28.54,39.13,10.24,80-13.78,90.49-53.21a74.86,74.86,0,0,0-53.47-91.69c-38.95-10.4-80.06,13-90.67,51.61a8.19,8.19,0,0,0,.4,1.76c3.82-2.47,7.34-4.84,10.94-7.06,4.36-2.69,8.7-2.71,11.85,1.62,3.4,4.69,2,9.09-2.52,12.23-8.61,6-17.33,11.81-26.1,17.56-5.65,3.71-10.3,2.47-14-3.19C12.58,86,6.26,76.69,0,67.32V61c7.63-8,9.06-7.55,21.59,6.85L24,61.24C37.17,24.31,73.27-.9,111.61,0a92.49,92.49,0,0,1,86.08,65.59c1.58,5.23,2.68,10.59,4,15.89Z"/><path d="M117.77,71.4C113.89,84.15,121,94.9,132.32,104a62.62,62.62,0,0,1,8.25,8.43c3.15,3.72,3.22,7.85-.3,11.29s-7.91,3.58-11.34.29c-8.9-8.53-17.46-17.4-26.05-26.24-1.92-2-2.06-4.69-2-7.39,0-12.59.07-25.18,0-37.78,0-6,1.8-10.66,8.64-10.6,6.41.07,8.21,4.71,8.29,10.25S117.77,63.28,117.77,71.4Z"/></g></g></svg>