<svg xmlns="http://www.w3.org/2000/svg" viewBox="0 0 201.81 159.78"><g id="图层_2" data-name="图层 2"><g id="logo-pasteOn"><path d="M166.73,124.44l5.7-5.49c2.72-2.63,5.36-5.31,8.18-7.89,4.26-3.9,11.48-4.5,16.64-1.47s6.11,8.46,2,12.43q-17.59,17-35.33,34a14.2,14.2,0,0,1-19.45-.13q-17.61-17.41-35-34.92c-4.14-4.13-3.16-9.6,2.09-12.59a14.59,14.59,0,0,1,16.78,1.88c4.59,4.42,9,8.94,13.68,13.57.81-.9.49-1.73.49-2.48q0-55.52,0-111c0-2.89.57-5.54,3.48-7.61a14,14,0,0,1,12.55-2c4.62,1.34,7.24,4,7.6,7.73.08.9,0,1.8,0,2.7V124.3Z"/><path d="M35,35.32c-4.58,4.43-9.1,8.9-13.75,13.29-4.21,4-11.3,4.63-16.6,1.65s-6.23-8.44-1.83-12.72c7.85-7.64,15.79-15.23,23.7-22.83C30.21,11.15,33.89,7.58,37.62,4a14.31,14.31,0,0,1,19.82,0C69.06,15.58,80.59,27.13,92.16,38.66c3.13,3.11,3.78,6.47,1.32,9.93-2.29,3.21-6.08,4.8-11,4.66a13.2,13.2,0,0,1-9.35-3.94Q67.27,43.39,61.32,37.5c-.47-.47-1-.9-2-1.78v2.93q0,55.64,0,111.26c0,5.2-3.4,8.66-9.42,9.67-6.68,1.13-13.55-2.61-14.13-7.71a25.72,25.72,0,0,1-.09-2.91q0-55.64,0-111.26V35.48Z"/></g></g></svg>