<svg xmlns="http://www.w3.org/2000/svg" viewBox="0 0 157.65 188.38"><g id="图层_2" data-name="图层 2"><g id="logo-pasteOn"><path d="M81.76,0c1.37.29,2.76.53,4.11.88a27.49,27.49,0,0,1,10.6,5.29c17.74,14.42,35.41,28.93,53.27,43.2,10.22,8.17,10.14,23.75.72,31.52-2.47,2-5.23,2.72-8.19,1.23a7.28,7.28,0,0,1-1.81-12c3.42-3.42,3.25-6.6-.49-9.63Q114,39.37,88,18.28c-5.93-4.82-12.53-4.81-18.43,0L17.35,60.7c-3.5,2.84-3.54,6.65-.06,9.48Q43.53,91.53,69.8,112.85c5.62,4.56,12.14,4.56,17.87.11,2.66-2.06,5.28-4.19,8-6.25,3.59-2.78,8-2.38,10.64.93s2,7.76-1.48,10.57c-3.31,2.64-6.55,5.39-10,7.8a28.26,28.26,0,0,1-33.88-1.42q-12.21-9.9-24.39-19.86a1.75,1.75,0,0,0-2.72,0c-5.43,4.5-10.93,8.91-16.4,13.36-3.58,2.91-3.57,6.69,0,9.6q26.11,21.22,52.24,42.44c5.83,4.73,12.47,4.76,18.29,0q26.13-21.21,52.24-42.44c3.6-2.93,3.64-6.7.08-9.59q-26.18-21.3-52.37-42.56c-5.7-4.62-12.2-4.65-18-.13-2.62,2-5.19,4.12-7.81,6.15-3.68,2.85-8.17,2.45-10.78-.93S49.31,72.83,53,70c4.38-3.32,8.25-7.4,13.34-9.71C76.79,55.58,87,56.2,96,63.32c18.21,14.42,36.19,29.15,54.13,43.91,10.28,8.46,10,23.22-.5,31.79-13.9,11.38-27.87,22.65-41.82,34-3.66,3-7.31,6-11,8.92a28.35,28.35,0,0,1-36.1,0L8.19,139.19c-10.88-8.83-10.93-23.66-.1-32.52,4.7-3.84,9.4-7.68,14.15-11.44,1.12-.89,1-1.31,0-2.12-5-4-9.95-8-14.85-12a20.39,20.39,0,0,1-2.49-28.8,26.35,26.35,0,0,1,3.66-3.35Q34.64,27.69,60.75,6.46A27.78,27.78,0,0,1,74.68.32,3.84,3.84,0,0,0,75.51,0Z"/></g></g></svg>